<?xml version="1.0" standalone="no"?>
<!DOCTYPE svg PUBLIC "-//W3C//DTD SVG 20010904//EN"
 "http://www.w3.org/TR/2001/REC-SVG-20010904/DTD/svg10.dtd">
<svg version="1.0" xmlns="http://www.w3.org/2000/svg"
 width="700.000000pt" height="700.000000pt" viewBox="0 0 700.000000 700.000000"
 preserveAspectRatio="xMidYMid meet">
<metadata>
Created by potrace 1.14, written by Peter Selinger 2001-2017
</metadata>
<g transform="translate(0.000000,700.000000) scale(0.100000,-0.100000)"
fill="#000000" stroke="none">
<path d="M2707 6774 c-1 -1 -60 -4 -132 -7 -147 -6 -289 -26 -447 -62 -115
-27 -347 -101 -363 -116 -5 -5 -16 -9 -25 -9 -23 0 -274 -129 -370 -190 -79
-50 -218 -147 -230 -160 -3 -3 -34 -29 -70 -59 -236 -195 -468 -489 -616 -777
-86 -169 -179 -419 -209 -558 -38 -183 -47 -241 -64 -420 -3 -39 -6 -498 -5
-1021 0 -835 4 -1061 20 -1140 2 -11 7 -42 10 -70 4 -27 8 -53 10 -56 2 -4 6
-24 10 -45 16 -107 79 -311 141 -464 36 -88 134 -286 163 -330 10 -14 35 -52
56 -85 21 -33 59 -87 84 -120 24 -33 48 -64 52 -70 4 -5 28 -35 54 -65 434
-511 1045 -828 1714 -887 110 -10 1979 -10 2090 0 47 4 96 9 110 12 14 2 56 9
94 15 555 87 1100 390 1475 820 106 122 127 149 206 266 180 269 308 572 374
889 54 260 55 279 55 1360 0 1014 -3 1090 -49 1315 -3 14 -7 37 -10 52 -12 63
-78 277 -116 374 -40 103 -158 345 -183 374 -7 8 -25 37 -40 64 -107 186 -368
470 -596 649 -106 83 -306 205 -440 269 -159 76 -411 165 -510 182 -14 2 -43
8 -65 14 -22 6 -58 13 -80 16 -22 3 -51 8 -65 10 -150 26 -247 28 -1148 30
-486 0 -884 0 -885 0z"/>
</g>
</svg>
